<svg width="1024" height="1024" viewBox="0 0 1024 1024" fill="none" xmlns="http://www.w3.org/2000/svg">
  <defs>
    <linearGradient id="panel" x1="190" y1="168" x2="842" y2="860" gradientUnits="userSpaceOnUse">
      <stop stop-color="#231916"/>
      <stop offset="1" stop-color="#18110F"/>
    </linearGradient>
    <linearGradient id="panelGlow" x1="256" y1="172" x2="744" y2="852" gradientUnits="userSpaceOnUse">
      <stop stop-color="#7A3B20"/>
      <stop offset="1" stop-color="#2B1813"/>
    </linearGradient>
    <radialGradient id="spark" cx="0" cy="0" r="1" gradientUnits="userSpaceOnUse" gradientTransform="translate(592 402) rotate(90) scale(130)">
      <stop stop-color="#FFD56A"/>
      <stop offset="1" stop-color="#F6B23E"/>
    </radialGradient>
    <filter id="sparkGlow" x="470" y="280" width="244" height="244" filterUnits="userSpaceOnUse" color-interpolation-filters="sRGB">
      <feGaussianBlur stdDeviation="18" result="blur"/>
      <feColorMatrix in="blur" type="matrix" values="1 0 0 0 0.95 0 1 0 0 0.63 0 0 1 0 0.14 0 0 0 0.7 0"/>
      <feBlend in="SourceGraphic"/>
    </filter>
    <linearGradient id="accent" x1="684" y1="298" x2="834" y2="726" gradientUnits="userSpaceOnUse">
      <stop stop-color="#F6B34C"/>
      <stop offset="1" stop-color="#FF8A2A"/>
    </linearGradient>
    <linearGradient id="sheen" x1="244" y1="224" x2="448" y2="430" gradientUnits="userSpaceOnUse">
      <stop stop-color="white" stop-opacity="0.22"/>
      <stop offset="1" stop-color="white" stop-opacity="0"/>
    </linearGradient>
  </defs>

  <g transform="translate(512 512) scale(1.0612244898) translate(-512 -512)">
  <rect x="120" y="120" width="784" height="784" rx="180" fill="url(#panel)"/>
  <rect x="124" y="124" width="776" height="776" rx="176" stroke="url(#panelGlow)" stroke-width="8"/>
  <path d="M236 260C324 190 464 170 612 206" stroke="#5C2E1D" stroke-width="18" stroke-linecap="round" opacity="0.58"/>
  <path d="M214 760C366 824 566 824 718 754" stroke="#5C2E1D" stroke-width="18" stroke-linecap="round" opacity="0.4"/>
  <ellipse cx="370" cy="292" rx="136" ry="92" fill="url(#sheen)"/>

  <path d="M310 350L510 512L310 674" stroke="#F5F0E6" stroke-width="64" stroke-linecap="round" stroke-linejoin="round"/>
  <rect x="440" y="690" width="120" height="48" rx="20" fill="#F5F0E6"/>
  <path d="M684 298H834V726H684" stroke="url(#accent)" stroke-width="64" stroke-linecap="round" stroke-linejoin="round"/>
  <g filter="url(#sparkGlow)">
    <path d="M592 334L608.8 385.2L660 402L608.8 418.8L592 470L575.2 418.8L524 402L575.2 385.2L592 334Z" fill="url(#spark)"/>
  </g>
  </g>
</svg>
